<svg width="16" height="16" viewBox="0 0 16 16" fill="none" xmlns="http://www.w3.org/2000/svg">
<path d="M5.33333 5.33333C6.48 5.33333 7.55556 5.69778 8.41778 6.32L12.96 1.77778H8.88889V0H16V7.11111H14.2222V3.03111L9.68 7.55556C10.3022 8.44444 10.6667 9.51111 10.6667 10.6667C10.6667 12.0812 10.1048 13.4377 9.10457 14.4379C8.10438 15.4381 6.74782 16 5.33333 16C3.91885 16 2.56229 15.4381 1.5621 14.4379C0.561903 13.4377 0 12.0812 0 10.6667C0 9.25218 0.561903 7.89562 1.5621 6.89543C2.56229 5.89524 3.91885 5.33333 5.33333 5.33333ZM5.33333 7.11111C4.39034 7.11111 3.48597 7.48571 2.81918 8.15251C2.15238 8.8193 1.77778 9.72367 1.77778 10.6667C1.77778 11.6097 2.15238 12.514 2.81918 13.1808C3.48597 13.8476 4.39034 14.2222 5.33333 14.2222C6.27633 14.2222 7.18069 13.8476 7.84749 13.1808C8.51429 12.514 8.88889 11.6097 8.88889 10.6667C8.88889 9.72367 8.51429 8.8193 7.84749 8.15251C7.18069 7.48571 6.27633 7.11111 5.33333 7.11111Z" fill="#676767"/>
</svg>
