<svg width="46" height="46" viewBox="0 0 46 46" fill="none" xmlns="http://www.w3.org/2000/svg">
<mask id="path-1-inside-1_42_322" fill="white">
<path d="M23 0C29.0777 7.24762e-08 34.9084 2.40561 39.218 6.6912C43.5276 10.9768 45.9657 16.7939 45.9996 22.8716C46.0336 28.9492 43.6606 34.7932 39.3991 39.1267C35.1376 43.4601 29.3342 45.9307 23.2568 45.9986C17.1795 46.0664 11.3223 43.7261 6.96514 39.4889C2.60797 35.2517 0.105029 29.4621 0.0032267 23.3853C-0.0985753 17.3084 2.20904 11.4382 6.42184 7.05746C10.6346 2.67669 16.4101 0.141467 22.4864 0.00573625L22.5377 2.30516C17.0691 2.42732 11.8712 4.70903 8.07966 8.65171C4.28813 12.5944 2.21128 17.8775 2.30291 23.3467C2.39453 28.8159 4.64717 34.0265 8.56863 37.84C12.4901 41.6535 17.7615 43.7598 23.2312 43.6987C28.7008 43.6376 33.9239 41.4141 37.7592 37.514C41.5945 33.6139 43.7302 28.3543 43.6997 22.8844C43.6691 17.4145 41.4748 12.1791 37.5962 8.32208C33.7176 4.46505 28.47 2.3 23 2.3L23 0Z"/>
</mask>
<path d="M23 0C29.0777 7.24762e-08 34.9084 2.40561 39.218 6.6912C43.5276 10.9768 45.9657 16.7939 45.9996 22.8716C46.0336 28.9492 43.6606 34.7932 39.3991 39.1267C35.1376 43.4601 29.3342 45.9307 23.2568 45.9986C17.1795 46.0664 11.3223 43.7261 6.96514 39.4889C2.60797 35.2517 0.105029 29.4621 0.0032267 23.3853C-0.0985753 17.3084 2.20904 11.4382 6.42184 7.05746C10.6346 2.67669 16.4101 0.141467 22.4864 0.00573625L22.5377 2.30516C17.0691 2.42732 11.8712 4.70903 8.07966 8.65171C4.28813 12.5944 2.21128 17.8775 2.30291 23.3467C2.39453 28.8159 4.64717 34.0265 8.56863 37.84C12.4901 41.6535 17.7615 43.7598 23.2312 43.6987C28.7008 43.6376 33.9239 41.4141 37.7592 37.514C41.5945 33.6139 43.7302 28.3543 43.6997 22.8844C43.6691 17.4145 41.4748 12.1791 37.5962 8.32208C33.7176 4.46505 28.47 2.3 23 2.3L23 0Z" stroke="#FFD15B" stroke-width="4" mask="url(#path-1-inside-1_42_322)"/>
</svg>
