<svg width="48" height="48" viewBox="0 0 48 48" fill="none" xmlns="http://www.w3.org/2000/svg">
<mask id="path-1-inside-1_14_812" fill="white">
<path d="M24 0C30.3634 7.5883e-08 36.4664 2.52716 40.9669 7.02582C45.4675 11.5245 47.9973 17.6263 48 23.9898C48.0027 30.3532 45.4782 36.4572 40.9814 40.9597C36.4847 45.4622 30.3839 47.9946 24.0205 48C17.6571 48.0054 11.552 45.4835 7.04755 40.9887C2.54313 36.4938 0.0081636 30.3941 1.96549e-05 24.0307C-0.0081243 17.6673 2.51122 11.5611 7.00412 7.0548C11.497 2.54846 17.5956 0.0108936 23.959 3.49422e-05L23.9652 3.60003C18.5563 3.60926 13.3725 5.76619 9.5535 9.59657C5.73454 13.427 3.59309 18.6172 3.60002 24.0261C3.60694 29.435 5.76166 34.6198 9.59041 38.4404C13.4192 42.261 18.6085 44.4046 24.0174 44.4C29.4263 44.3954 34.612 42.2429 38.4342 38.4157C42.2564 34.5886 44.4023 29.4002 44.4 23.9913C44.3977 18.5824 42.2474 13.3958 38.4219 9.57194C34.5964 5.74808 29.4089 3.6 24 3.6L24 0Z"/>
</mask>
<path d="M24 0C30.3634 7.5883e-08 36.4664 2.52716 40.9669 7.02582C45.4675 11.5245 47.9973 17.6263 48 23.9898C48.0027 30.3532 45.4782 36.4572 40.9814 40.9597C36.4847 45.4622 30.3839 47.9946 24.0205 48C17.6571 48.0054 11.552 45.4835 7.04755 40.9887C2.54313 36.4938 0.0081636 30.3941 1.96549e-05 24.0307C-0.0081243 17.6673 2.51122 11.5611 7.00412 7.0548C11.497 2.54846 17.5956 0.0108936 23.959 3.49422e-05L23.9652 3.60003C18.5563 3.60926 13.3725 5.76619 9.5535 9.59657C5.73454 13.427 3.59309 18.6172 3.60002 24.0261C3.60694 29.435 5.76166 34.6198 9.59041 38.4404C13.4192 42.261 18.6085 44.4046 24.0174 44.4C29.4263 44.3954 34.612 42.2429 38.4342 38.4157C42.2564 34.5886 44.4023 29.4002 44.4 23.9913C44.3977 18.5824 42.2474 13.3958 38.4219 9.57194C34.5964 5.74808 29.4089 3.6 24 3.6L24 0Z" stroke="#FFD15B" stroke-width="8" mask="url(#path-1-inside-1_14_812)"/>
</svg>
