<svg width="38" height="38" viewBox="0 0 38 38" fill="none" xmlns="http://www.w3.org/2000/svg">
<rect width="38" height="38" rx="4" fill="#FFD15B"/>
<path d="M15.0003 26.9999C15.7367 26.9999 16.3337 26.403 16.3337 25.6666C16.3337 24.9302 15.7367 24.3333 15.0003 24.3333C14.2639 24.3333 13.667 24.9302 13.667 25.6666C13.667 26.403 14.2639 26.9999 15.0003 26.9999Z" fill="#0A0A0A"/>
<path d="M24.3333 26.9999C25.0697 26.9999 25.6667 26.403 25.6667 25.6666C25.6667 24.9302 25.0697 24.3333 24.3333 24.3333C23.597 24.3333 23 24.9302 23 25.6666C23 26.403 23.597 26.9999 24.3333 26.9999Z" fill="#0A0A0A"/>
<path d="M26.7 13.3658C26.6063 13.2513 26.4883 13.159 26.3546 13.0957C26.2208 13.0324 26.0746 12.9997 25.9267 13H13.2454L12.99 11.5508C12.9628 11.3965 12.882 11.2566 12.7619 11.1559C12.6418 11.0552 12.4901 11 12.3333 11H9.66667C9.48986 11 9.32029 11.0702 9.19526 11.1953C9.07024 11.3203 9 11.4899 9 11.6667C9 11.8435 9.07024 12.013 9.19526 12.1381C9.32029 12.2631 9.48986 12.3333 9.66667 12.3333H11.7742L13.6767 23.1158C13.7039 23.2702 13.7847 23.41 13.9047 23.5108C14.0248 23.6115 14.1766 23.6667 14.3333 23.6667H25C25.1768 23.6667 25.3464 23.5964 25.4714 23.4714C25.5964 23.3464 25.6667 23.1768 25.6667 23C25.6667 22.8232 25.5964 22.6536 25.4714 22.5286C25.3464 22.4036 25.1768 22.3333 25 22.3333H14.8925L14.6575 21H24.7267C24.9579 20.9997 25.1819 20.9195 25.3607 20.7731C25.5396 20.6266 25.6624 20.4228 25.7083 20.1962L26.9083 14.1963C26.9372 14.051 26.9336 13.9012 26.8975 13.7576C26.8615 13.614 26.794 13.4802 26.7 13.3658Z" fill="#0A0A0A"/>
</svg>
