<svg width="46" height="46" viewBox="0 0 46 46" fill="none" xmlns="http://www.w3.org/2000/svg">
<mask id="path-1-inside-1_42_322" fill="white">
<path d="M23 0C29.0827 7.2536e-08 34.9178 2.40957 39.2283 6.70141C43.5387 10.9933 45.9735 16.8178 45.9998 22.9005C46.0261 28.9832 43.6418 34.8286 39.3686 39.1576C35.0955 43.4866 29.2815 45.9465 23.1989 45.9991C17.1164 46.0518 11.2607 43.6927 6.91333 39.4383C2.56593 35.1839 0.0808526 29.3806 0.00193578 23.2984C-0.076981 17.2162 2.25669 11.3503 6.49224 6.98457C10.7278 2.61881 16.5203 0.108661 22.6021 0.00344135L22.6419 2.3031C17.1683 2.3978 11.955 4.65693 8.14302 8.58612C4.33102 12.5153 2.23072 17.7945 2.30174 23.2686C2.37277 28.7426 4.60933 33.9655 8.522 37.7945C12.4347 41.6235 17.7048 43.7466 23.179 43.6992C28.6533 43.6519 33.8859 41.4379 37.7318 37.5418C41.5776 33.6458 43.7235 28.3849 43.6998 22.9105C43.6761 17.4361 41.4848 12.1939 37.6054 8.33127C33.726 4.46862 28.4745 2.3 23 2.3L23 0Z"/>
</mask>
<path d="M23 0C29.0827 7.2536e-08 34.9178 2.40957 39.2283 6.70141C43.5387 10.9933 45.9735 16.8178 45.9998 22.9005C46.0261 28.9832 43.6418 34.8286 39.3686 39.1576C35.0955 43.4866 29.2815 45.9465 23.1989 45.9991C17.1164 46.0518 11.2607 43.6927 6.91333 39.4383C2.56593 35.1839 0.0808526 29.3806 0.00193578 23.2984C-0.076981 17.2162 2.25669 11.3503 6.49224 6.98457C10.7278 2.61881 16.5203 0.108661 22.6021 0.00344135L22.6419 2.3031C17.1683 2.3978 11.955 4.65693 8.14302 8.58612C4.33102 12.5153 2.23072 17.7945 2.30174 23.2686C2.37277 28.7426 4.60933 33.9655 8.522 37.7945C12.4347 41.6235 17.7048 43.7466 23.179 43.6992C28.6533 43.6519 33.8859 41.4379 37.7318 37.5418C41.5776 33.6458 43.7235 28.3849 43.6998 22.9105C43.6761 17.4361 41.4848 12.1939 37.6054 8.33127C33.726 4.46862 28.4745 2.3 23 2.3L23 0Z" stroke="#FFD15B" stroke-width="4" mask="url(#path-1-inside-1_42_322)"/>
</svg>
