<svg width="42" height="42" viewBox="0 0 42 42" fill="none" xmlns="http://www.w3.org/2000/svg">
<rect width="42" height="42" rx="4" fill="#FFD15B"/>
<path d="M16.9998 28.9999C17.7362 28.9999 18.3332 28.403 18.3332 27.6666C18.3332 26.9302 17.7362 26.3333 16.9998 26.3333C16.2635 26.3333 15.6665 26.9302 15.6665 27.6666C15.6665 28.403 16.2635 28.9999 16.9998 28.9999Z" fill="#0D0D0D"/>
<path d="M26.3333 28.9999C27.0697 28.9999 27.6667 28.403 27.6667 27.6666C27.6667 26.9302 27.0697 26.3333 26.3333 26.3333C25.597 26.3333 25 26.9302 25 27.6666C25 28.403 25.597 28.9999 26.3333 28.9999Z" fill="#0D0D0D"/>
<path d="M28.7 15.3658C28.6063 15.2513 28.4883 15.159 28.3546 15.0957C28.2208 15.0324 28.0746 14.9997 27.9267 15H15.2454L14.99 13.5508C14.9628 13.3965 14.882 13.2566 14.7619 13.1559C14.6418 13.0552 14.4901 13 14.3333 13H11.6667C11.4899 13 11.3203 13.0702 11.1953 13.1953C11.0702 13.3203 11 13.4899 11 13.6667C11 13.8435 11.0702 14.013 11.1953 14.1381C11.3203 14.2631 11.4899 14.3333 11.6667 14.3333H13.7742L15.6767 25.1158C15.7039 25.2702 15.7847 25.41 15.9047 25.5108C16.0248 25.6115 16.1766 25.6667 16.3333 25.6667H27C27.1768 25.6667 27.3464 25.5964 27.4714 25.4714C27.5964 25.3464 27.6667 25.1768 27.6667 25C27.6667 24.8232 27.5964 24.6536 27.4714 24.5286C27.3464 24.4036 27.1768 24.3333 27 24.3333H16.8925L16.6575 23H26.7267C26.9579 22.9997 27.1819 22.9195 27.3607 22.7731C27.5396 22.6266 27.6624 22.4228 27.7083 22.1962L28.9083 16.1963C28.9372 16.051 28.9336 15.9012 28.8975 15.7576C28.8615 15.614 28.794 15.4802 28.7 15.3658Z" fill="#0D0D0D"/>
</svg>
