<svg width="21" height="21" viewBox="0 0 21 21" fill="none" xmlns="http://www.w3.org/2000/svg">
<path d="M10.5 0C8.4233 0 6.39323 0.615814 4.66652 1.76957C2.9398 2.92332 1.59399 4.5632 0.799269 6.48182C0.00454949 8.40045 -0.203385 10.5116 0.201759 12.5484C0.606904 14.5852 1.60693 16.4562 3.07538 17.9246C4.54383 19.3931 6.41475 20.3931 8.45155 20.7982C10.4884 21.2034 12.5996 20.9954 14.5182 20.2007C16.4368 19.406 18.0767 18.0602 19.2304 16.3335C20.3842 14.6068 21 12.5767 21 10.5C20.9971 7.71613 19.8899 5.04712 17.9214 3.07862C15.9529 1.11013 13.2839 0.00293982 10.5 0ZM18.9242 7.67308C17.4038 7.18201 15.8294 6.8769 14.2356 6.76442C14.1231 5.17058 13.818 3.59624 13.3269 2.07577C14.6275 2.51559 15.809 3.24941 16.7798 4.22018C17.7506 5.19096 18.4844 6.37254 18.9242 7.67308ZM6.15866 2.75019C8.67471 3.58179 10.9891 4.9302 12.9534 6.70889C8.91456 6.67388 4.96147 7.87368 1.62347 10.1476C1.68461 8.6299 2.13354 7.15313 2.92746 5.85816C3.72138 4.56318 4.83381 3.49318 6.15866 2.75019ZM10.8513 19.3765C13.1255 16.0382 14.3253 12.0848 14.2901 8.04562C16.0693 10.0101 17.418 12.3249 18.2498 14.8413C17.5068 16.1662 16.4368 17.2786 15.1418 18.0725C13.8469 18.8665 12.3701 19.3154 10.8524 19.3765H10.8513Z" fill="#676767"/>
</svg>
