<svg width="22" height="22" viewBox="0 0 22 22" fill="none" xmlns="http://www.w3.org/2000/svg">
<path d="M21.104 4.37831C20.5396 3.69918 19.7562 3.23881 18.8889 3.07674C18.7854 2.54246 18.5686 2.03666 18.2531 1.59357C17.9375 1.15049 17.5306 0.780446 17.0599 0.508488C16.5892 0.23653 16.0656 0.0689994 15.5247 0.0172315C14.9837 -0.0345365 14.4379 0.0306658 13.9243 0.208427C13.4107 0.386188 12.9412 0.67236 12.5476 1.04758C12.1539 1.4228 11.8454 1.87832 11.6428 2.38331C11.4402 2.88831 11.3482 3.43099 11.3732 3.97465C11.3981 4.51832 11.5393 5.05027 11.7874 5.53453L5.52631 11.8096C5.04277 11.5613 4.51161 11.4198 3.96875 11.3948C3.4259 11.3698 2.88402 11.4619 2.37977 11.6648C1.87553 11.8678 1.42069 12.1768 1.04603 12.571C0.671362 12.9652 0.385614 13.4354 0.208117 13.9498C0.0306203 14.4642 -0.0344852 15.0107 0.0172059 15.5525C0.068897 16.0943 0.236179 16.6186 0.507733 17.09C0.779287 17.5614 1.14878 17.9689 1.59121 18.2849C2.03364 18.601 2.53868 18.8181 3.07217 18.9217C3.17543 19.4562 3.39211 19.9621 3.70757 20.4054C4.02302 20.8487 4.42988 21.2189 4.9006 21.491C5.37132 21.7631 5.89493 21.9308 6.43597 21.9827C6.97702 22.0346 7.52288 21.9695 8.03661 21.7917C8.55034 21.614 9.01996 21.3278 9.41367 20.9525C9.80738 20.5773 10.116 20.1217 10.3186 19.6166C10.5213 19.1115 10.6132 18.5687 10.5882 18.025C10.5632 17.4812 10.4218 16.9492 10.1737 16.4649L16.4395 10.1888C17.2181 10.5988 18.1148 10.7252 18.9762 10.5462C19.8375 10.3673 20.6101 9.89417 21.1616 9.20782C21.7131 8.52147 22.0094 7.66453 21.9998 6.78357C21.9901 5.90262 21.6752 5.05239 21.1087 4.37831H21.104ZM19.3357 7.81751C19.0978 8.08924 18.771 8.26718 18.4139 8.31942C18.0568 8.37165 17.6928 8.29475 17.3872 8.10252C17.0231 7.87173 16.5913 7.77195 16.163 7.81961C15.7348 7.86727 15.3354 8.05952 15.0308 8.36474L8.35232 15.0531C8.04771 15.3583 7.85591 15.7583 7.8085 16.1873C7.76109 16.6162 7.86087 17.0485 8.09144 17.413C8.2204 17.6212 8.29721 17.8576 8.31531 18.1019C8.33341 18.3462 8.29227 18.5913 8.19539 18.8163C8.09851 19.0413 7.94877 19.2395 7.75893 19.394C7.56908 19.5485 7.34475 19.6548 7.10504 19.7038C6.86534 19.7528 6.61737 19.743 6.38225 19.6753C6.14713 19.6076 5.93184 19.484 5.75471 19.315C5.57758 19.146 5.44386 18.9366 5.36495 18.7047C5.28603 18.4728 5.26426 18.2252 5.30148 17.9831C5.32622 17.8207 5.31563 17.6549 5.27046 17.4971C5.22528 17.3392 5.14658 17.1929 5.03974 17.0684C4.9329 16.9438 4.80044 16.8438 4.65143 16.7752C4.50242 16.7066 4.34038 16.6711 4.17639 16.6711C4.11763 16.6708 4.05894 16.6752 4.00089 16.6844C3.75902 16.7219 3.51168 16.7002 3.27996 16.6213C3.04824 16.5423 2.83902 16.4085 2.67014 16.2311C2.50125 16.0536 2.37771 15.838 2.31005 15.6024C2.24238 15.3668 2.2326 15.1184 2.28155 14.8782C2.33049 14.638 2.43669 14.4133 2.59111 14.2231C2.74553 14.0329 2.94359 13.883 3.16838 13.786C3.39318 13.6891 3.63805 13.648 3.88212 13.6663C4.12619 13.6846 4.36222 13.7618 4.57008 13.8912C4.93411 14.1217 5.36565 14.2214 5.79373 14.1737C6.22181 14.1261 6.62096 13.934 6.92556 13.629L13.604 6.94061C13.9088 6.63549 14.1007 6.23557 14.1483 5.80664C14.1959 5.37772 14.0963 4.94534 13.8658 4.58067C13.7366 4.3725 13.6596 4.13612 13.6413 3.89169C13.623 3.64726 13.664 3.40202 13.7608 3.17689C13.8576 2.95176 14.0074 2.75342 14.1972 2.59877C14.3871 2.44412 14.6116 2.33775 14.8514 2.28874C15.0912 2.23972 15.3393 2.24952 15.5745 2.31728C15.8097 2.38504 16.0251 2.50877 16.2022 2.67791C16.3794 2.84704 16.513 3.05658 16.5919 3.28864C16.6707 3.5207 16.6923 3.76841 16.6548 4.01064C16.6271 4.18802 16.6417 4.36945 16.6972 4.54015C16.7528 4.71084 16.8478 4.86598 16.9746 4.99294C17.1014 5.11989 17.2563 5.21507 17.4267 5.27071C17.5972 5.32636 17.7783 5.3409 17.9554 5.31316C18.2639 5.26367 18.5801 5.31071 18.8609 5.44787C19.1417 5.58503 19.3734 5.80562 19.5244 6.07954C19.6753 6.35346 19.7382 6.66736 19.7045 6.9784C19.6707 7.28945 19.5419 7.58248 19.3357 7.81751Z" fill="#676767"/>
</svg>
