<svg width="21" height="21" viewBox="0 0 21 21" fill="none" xmlns="http://www.w3.org/2000/svg">
<path d="M9.35713 2.10102C8.35613 3.10202 7.77713 4.43602 7.44513 5.77402C7.11213 7.11802 7.01413 8.52102 7.01513 9.72402C7.0141 9.80919 6.97988 9.8906 6.91974 9.95092C6.8596 10.0112 6.7783 10.0457 6.69313 10.047C4.92213 10.054 2.67713 10.267 0.861134 11.134C0.179134 11.46 -0.105866 12.132 0.0351343 12.769C0.168134 13.365 0.650134 13.854 1.30213 14.013C2.09713 14.207 3.01913 14.458 3.82113 14.743C4.22213 14.885 4.58113 15.031 4.87313 15.177C5.17513 15.329 5.36013 15.457 5.45113 15.549C5.54213 15.639 5.67113 15.824 5.82213 16.126C5.96813 16.418 6.11413 16.776 6.25613 17.177C6.54013 17.978 6.79013 18.9 6.98413 19.694C7.14313 20.346 7.63213 20.829 8.22913 20.961C8.86613 21.103 9.53813 20.818 9.86413 20.136C10.7311 18.323 10.9441 16.082 10.9541 14.313C10.9541 14.139 11.1011 13.992 11.2771 13.992C12.4791 13.992 13.8831 13.894 15.2271 13.561C16.5671 13.228 17.9011 12.649 18.9031 11.647C20.0231 10.527 20.5711 9.03802 20.8201 7.59102C21.0701 6.14002 21.0291 4.66502 20.9151 3.49902C20.8347 2.62177 20.4496 1.80039 19.8267 1.17747C19.2038 0.554563 18.3824 0.169457 17.5051 0.0890169C16.3391 -0.0239831 14.8651 -0.0649831 13.4131 0.184017C11.9661 0.434017 10.4771 0.982017 9.35713 2.10102ZM15.0001 2.99802C15.2654 2.99802 15.5197 3.10337 15.7072 3.29091C15.8948 3.47845 16.0001 3.7328 16.0001 3.99802C16.0001 4.26323 15.8948 4.51759 15.7072 4.70512C15.5197 4.89266 15.2654 4.99802 15.0001 4.99802C14.7349 4.99802 14.4806 4.89266 14.293 4.70512C14.1055 4.51759 14.0001 4.26323 14.0001 3.99802C14.0001 3.7328 14.1055 3.47845 14.293 3.29091C14.4806 3.10337 14.7349 2.99802 15.0001 2.99802Z" fill="#676767"/>
</svg>
