<svg width="12" height="16" viewBox="0 0 12 16" fill="none" xmlns="http://www.w3.org/2000/svg">
<path d="M5.61178 1.60049C6.65649 1.59898 7.66037 2.00613 8.40888 2.73495C9.15739 3.46377 9.59116 4.45644 9.61749 5.50082C9.64382 6.54521 9.26064 7.55848 8.54981 8.32409C7.83898 9.08971 6.8569 9.54694 5.81344 9.59808H5.41012C4.36665 9.54694 3.38457 9.08971 2.67374 8.32409C1.96292 7.55848 1.57973 6.54521 1.60606 5.50082C1.6324 4.45644 2.06617 3.46377 2.81467 2.73495C3.56318 2.00613 4.56706 1.59898 5.61178 1.60049ZM6.41202 11.1473C7.8116 10.9423 9.08183 10.2154 9.96778 9.11269C10.8537 8.00996 11.2898 6.61296 11.1885 5.20206C11.0872 3.79116 10.4561 2.47077 9.4217 1.5059C8.38733 0.541029 7.02631 0.00307589 5.61178 9.09736e-06C4.19381 -0.0025449 2.82764 0.532744 1.78884 1.4979C0.75004 2.46306 0.115919 3.78625 0.0143879 5.20058C-0.0871432 6.61491 0.351472 8.01511 1.24176 9.11875C2.13204 10.2224 3.40775 10.9473 4.81154 11.1473V11.9988H2.41082V13.5993H4.81154V16H6.41202V13.5993H8.81273V11.9988H6.41202V11.1473Z" fill="#676767"/>
</svg>
